<svg xmlns="http://www.w3.org/2000/svg" viewBox="0 0 450 120">
  <g transform="translate(10, 10)">
    <path fill="#002244" d="M30,10 H5 L10,80 H90 L95,10 Z M25,90 a8,8 0 1,0 16,0 a8,8 0 1,0 -16,0 M75,90 a8,8 0 1,0 16,0 a8,8 0 1,0 -16,0" />
    <path fill="#20A5A9" d="M45,35 L60,20 L65,25 L80,10 H60 V25 H45 Z M45,35 L35,50 H55 V35 Z M55,35 V70 H75 L75,50 Z" />
  </g>
  <g transform="translate(140, 65)">
    <text font-family="Helvetica, sans-serif" font-size="40" font-weight="bold" fill="#002244">Market</text>
    <text x="160" font-family="Helvetica, sans-serif" font-size="40" font-weight="bold" fill="#20A5A9">Pro</text>
  </g>
</svg>
